<svg width="409" height="59" viewBox="0 0 409 59" fill="none" xmlns="http://www.w3.org/2000/svg">
<path d="M408.84 0.349338C407.238 0.174669 405.317 0 403.395 0C378.253 0 378.253 15.7202 352.951 15.7202C327.809 15.7202 327.809 0 302.506 0C277.364 0 277.364 15.7202 252.062 15.7202C226.92 15.7202 226.92 0 201.617 0C176.475 0 176.475 15.7202 151.173 15.7202C126.031 15.7202 126.031 0 100.889 0C75.5865 0 75.5865 15.7202 50.4444 15.7202C25.1421 15.7202 25.1421 0 0 0V33.7111C25.1421 33.7111 25.1421 49.4314 50.4444 49.4314C75.5865 49.4314 75.5865 33.7111 100.889 33.7111C126.031 33.7111 126.031 49.4314 151.333 49.4314C176.475 49.4314 176.475 33.7111 201.778 33.7111C226.92 33.7111 226.92 49.4314 252.222 49.4314C277.364 49.4314 277.364 33.7111 302.666 33.7111C327.809 33.7111 327.809 49.4314 353.111 49.4314C378.253 49.4314 378.253 33.7111 403.555 33.7111C405.477 33.7111 407.238 33.8858 409 34.0605V0.349338H408.84Z" fill="#FFE46B"/>
<path d="M408.84 43.2277C407.078 43.0684 405.317 42.9091 403.395 42.9091C390.584 42.9091 384.018 46.5733 377.772 50.2376C371.367 53.9019 365.281 57.4068 352.951 57.4068C340.62 57.4068 334.534 53.9019 328.129 50.2376C321.883 46.5733 315.318 42.9091 302.506 42.9091C289.695 42.9091 283.129 46.5733 276.884 50.2376C270.478 53.9019 264.393 57.4068 252.062 57.4068C239.731 57.4068 233.646 53.9019 227.24 50.2376C220.995 46.5733 214.429 42.9091 201.617 42.9091C188.806 42.9091 182.24 46.5733 175.995 50.2376C169.589 53.9019 163.504 57.4068 151.173 57.4068C138.842 57.2475 132.757 53.9019 126.511 50.2376C120.106 46.5733 113.7 42.9091 100.889 42.9091C88.0775 42.9091 81.5117 46.5733 75.2663 50.2376C68.8606 53.9019 62.7753 57.2475 50.4444 57.2475C38.1135 57.2475 32.0282 53.9019 25.6226 50.2376C19.3771 46.5733 12.8113 42.9091 0 42.9091V44.5022C12.3309 44.5022 18.4162 48.0072 24.8218 51.6715C31.0673 55.3357 37.6331 59 50.4444 59C63.2557 59 69.8215 55.3357 76.067 51.6715C82.4726 48.0072 88.3978 44.5022 100.889 44.5022C113.22 44.5022 119.305 48.0072 125.711 51.6715C131.956 55.3357 138.522 59 151.333 59C164.144 59 170.71 55.3357 176.956 51.6715C183.361 48.0072 189.447 44.5022 201.778 44.5022C214.108 44.5022 220.194 48.0072 226.599 51.6715C232.845 55.3357 239.411 59 252.222 59C265.033 59 271.599 55.3357 277.845 51.6715C284.25 48.0072 290.336 44.5022 302.666 44.5022C314.997 44.5022 321.083 48.0072 327.488 51.6715C333.734 55.3357 340.3 59 353.111 59C365.922 59 372.488 55.3357 378.733 51.6715C385.139 48.0072 391.224 44.5022 403.555 44.5022C405.477 44.5022 407.238 44.6615 409 44.8209V43.2277H408.84Z" fill="#111111"/>
<path d="M408.84 16.3103C407.078 16.1552 405.317 16.0002 403.395 16.0002C390.584 16.0002 384.018 19.567 377.772 23.1339C371.367 26.7008 365.281 30.1126 352.951 30.1126C340.62 30.1126 334.534 26.7008 328.129 23.1339C321.883 19.567 315.318 16.0002 302.506 16.0002C289.695 16.0002 283.129 19.567 276.884 23.1339C270.478 26.7008 264.393 30.1126 252.062 30.1126C239.731 30.1126 233.646 26.7008 227.24 23.1339C220.994 19.567 214.429 16.0002 201.617 16.0002C188.806 16.0002 182.24 19.567 175.995 23.1339C169.589 26.7008 163.504 30.1126 151.173 30.1126C138.842 29.9575 132.757 26.7008 126.511 23.1339C120.106 19.567 113.7 16.0002 100.889 16.0002C88.0775 16.0002 81.5117 19.567 75.2662 23.1339C68.8606 26.7008 62.7752 29.9575 50.4444 29.9575C38.1135 29.9575 32.0282 26.7008 25.6225 23.1339C19.3771 19.567 12.8113 16.0002 0 16.0002V17.551C12.3309 17.551 18.4162 20.9628 24.8218 24.5296C31.0673 28.0965 37.6331 31.6634 50.4444 31.6634C63.2557 31.6634 69.8214 28.0965 76.0669 24.5296C82.4726 20.9628 88.3978 17.551 100.889 17.551C113.22 17.551 119.305 20.9628 125.711 24.5296C131.956 28.0965 138.522 31.6634 151.333 31.6634C164.144 31.6634 170.71 28.0965 176.956 24.5296C183.361 20.9628 189.447 17.551 201.778 17.551C214.108 17.551 220.194 20.9628 226.599 24.5296C232.845 28.0965 239.411 31.6634 252.222 31.6634C265.033 31.6634 271.599 28.0965 277.845 24.5296C284.25 20.9628 290.336 17.551 302.666 17.551C314.997 17.551 321.083 20.9628 327.488 24.5296C333.734 28.0965 340.299 31.6634 353.111 31.6634C365.922 31.6634 372.488 28.0965 378.733 24.5296C385.139 20.9628 391.224 17.551 403.555 17.551C405.477 17.551 407.238 17.7061 409 17.8611V16.3103H408.84Z" fill="#111111"/>
</svg>
